<svg width="231" height="26" viewBox="0 0 231 26" fill="none" xmlns="http://www.w3.org/2000/svg">
<path d="M9.31053 25.1079C7.31463 25.1079 5.57096 24.8228 4.07952 24.2525C2.61002 23.6603 1.25018 22.7282 0 21.456L4.11242 17.3436C4.96781 18.1551 5.86706 18.7802 6.81018 19.2189C7.75329 19.6356 8.76221 19.844 9.83692 19.844C10.7362 19.844 11.4161 19.7124 11.8767 19.4492C12.3373 19.1641 12.5676 18.7802 12.5676 18.2977C12.5676 17.8152 12.3702 17.4204 11.9754 17.1133C11.5806 16.7843 11.0542 16.4992 10.3962 16.2579C9.76015 15.9947 9.04733 15.7316 8.25775 15.4684C7.4901 15.2052 6.72244 14.8871 5.95479 14.5143C5.18714 14.1414 4.47432 13.6918 3.81633 13.1654C3.18027 12.6171 2.66485 11.9481 2.27006 11.1585C1.87527 10.347 1.67787 9.36003 1.67787 8.19759C1.67787 6.68422 2.03976 5.37921 2.76355 4.28256C3.48734 3.18591 4.50722 2.35246 5.82319 1.78221C7.13917 1.19002 8.68544 0.893923 10.462 0.893923C12.2166 0.893923 13.8397 1.17905 15.3311 1.74931C16.8445 2.29763 18.0947 3.08722 19.0816 4.11806L14.9363 8.23049C14.2125 7.52863 13.4888 7.01321 12.765 6.68422C12.0412 6.33329 11.2516 6.15783 10.3962 6.15783C9.71629 6.15783 9.16796 6.26749 8.75124 6.48682C8.35645 6.70615 8.15905 7.03514 8.15905 7.4738C8.15905 7.93439 8.35645 8.31822 8.75124 8.62528C9.14603 8.91041 9.66146 9.1736 10.2975 9.41487C10.9555 9.65613 11.6683 9.90836 12.436 10.1716C13.2256 10.4347 14.0042 10.7528 14.7718 11.1256C15.5395 11.4766 16.2413 11.9372 16.8774 12.5074C17.5354 13.0557 18.0618 13.7466 18.4566 14.5801C18.8514 15.4135 19.0487 16.4224 19.0487 17.6068C19.0487 19.9975 18.1934 21.8508 16.4826 23.1668C14.7938 24.4609 12.4031 25.1079 9.31053 25.1079Z" fill="#01BAFF"/>
<path d="M21.7917 24.7131V1.28872H28.3716V24.7131H21.7917ZM27.1543 24.7131V19.1202H38.1098V24.7131H27.1543Z" fill="#01BAFF"/>
<path d="M51.3963 25.1737C49.5539 25.1737 47.8541 24.8666 46.2969 24.2525C44.7616 23.6384 43.4127 22.783 42.2503 21.6863C41.1098 20.5897 40.2215 19.2957 39.5854 17.8042C38.9494 16.3128 38.6313 14.7007 38.6313 12.968C38.6313 11.2134 38.9384 9.6013 39.5525 8.13179C40.1886 6.66228 41.0769 5.37921 42.2174 4.28256C43.3579 3.18591 44.6958 2.3415 46.2311 1.74931C47.7883 1.13519 49.4881 0.828125 51.3305 0.828125C53.1729 0.828125 54.8617 1.13519 56.397 1.74931C57.9543 2.3415 59.3031 3.18591 60.4436 4.28256C61.5842 5.37921 62.4615 6.67325 63.0756 8.16469C63.7117 9.6342 64.0297 11.2463 64.0297 13.0009C64.0297 14.7336 63.7117 16.3457 63.0756 17.8371C62.4615 19.3066 61.5842 20.6007 60.4436 21.7192C59.3031 22.8159 57.9652 23.6713 56.4299 24.2854C54.8946 24.8776 53.2167 25.1737 51.3963 25.1737ZM51.3305 19.3834C52.5588 19.3834 53.6225 19.1202 54.5218 18.5938C55.421 18.0674 56.1119 17.3217 56.5944 16.3566C57.0769 15.3916 57.3182 14.262 57.3182 12.968C57.3182 12.003 57.1756 11.1366 56.8905 10.3689C56.6273 9.57936 56.2325 8.91041 55.7061 8.36209C55.1797 7.79183 54.5437 7.36414 53.798 7.07901C53.0742 6.77195 52.2517 6.61842 51.3305 6.61842C50.1023 6.61842 49.0385 6.88161 48.1393 7.408C47.24 7.91246 46.5491 8.64721 46.0666 9.61226C45.5841 10.5554 45.3428 11.674 45.3428 12.968C45.3428 13.955 45.4744 14.8433 45.7376 15.6329C46.0227 16.4224 46.4285 17.1024 46.9549 17.6726C47.4813 18.2209 48.1064 18.6486 48.8302 18.9557C49.5759 19.2408 50.4093 19.3834 51.3305 19.3834Z" fill="#01BAFF"/>
<path d="M71.4004 24.7131V1.28872H77.9803V24.7131H71.4004ZM64.3929 6.88161V1.28872H85.0208V6.88161H64.3929Z" fill="#01BAFF"/>
<path d="M92.7658 24.7131V1.28872H99.3456V24.7131H92.7658ZM85.7582 6.88161V1.28872H106.386V6.88161H85.7582Z" fill="#01BAFF"/>
<path d="M115.13 16.6527L106.215 1.28872H113.782L120.526 13.8234H114.867L121.612 1.28872H129.014L120.032 16.6527H115.13ZM114.374 24.7131V14.2511H120.954V24.7131H114.374Z" fill="#01BAFF"/>
<path d="M136.603 25.1079C134.607 25.1079 132.863 24.8228 131.372 24.2525C129.902 23.6603 128.543 22.7282 127.292 21.456L131.405 17.3436C132.26 18.1551 133.159 18.7802 134.103 19.2189C135.046 19.6356 136.055 19.844 137.129 19.844C138.029 19.844 138.708 19.7124 139.169 19.4492C139.63 19.1641 139.86 18.7802 139.86 18.2977C139.86 17.8152 139.663 17.4204 139.268 17.1133C138.873 16.7843 138.347 16.4992 137.689 16.2579C137.053 15.9947 136.34 15.7316 135.55 15.4684C134.782 15.2052 134.015 14.8871 133.247 14.5143C132.48 14.1414 131.767 13.6918 131.109 13.1654C130.473 12.6171 129.957 11.9481 129.562 11.1585C129.168 10.347 128.97 9.36003 128.97 8.19759C128.97 6.68422 129.332 5.37921 130.056 4.28256C130.78 3.18591 131.8 2.35246 133.116 1.78221C134.432 1.19002 135.978 0.893923 137.754 0.893923C139.509 0.893923 141.132 1.17905 142.624 1.74931C144.137 2.29763 145.387 3.08722 146.374 4.11806L142.229 8.23049C141.505 7.52863 140.781 7.01321 140.057 6.68422C139.334 6.33329 138.544 6.15783 137.689 6.15783C137.009 6.15783 136.46 6.26749 136.044 6.48682C135.649 6.70615 135.451 7.03514 135.451 7.4738C135.451 7.93439 135.649 8.31822 136.044 8.62528C136.438 8.91041 136.954 9.1736 137.59 9.41487C138.248 9.65613 138.961 9.90836 139.728 10.1716C140.518 10.4347 141.297 10.7528 142.064 11.1256C142.832 11.4766 143.534 11.9372 144.17 12.5074C144.828 13.0557 145.354 13.7466 145.749 14.5801C146.144 15.4135 146.341 16.4224 146.341 17.6068C146.341 19.9975 145.486 21.8508 143.775 23.1668C142.086 24.4609 139.695 25.1079 136.603 25.1079Z" fill="white"/>
<path d="M149.084 24.7131V1.28872H155.664V24.7131H149.084ZM154.447 24.7131V19.1202H165.402V24.7131H154.447Z" fill="white"/>
<path d="M178.689 25.1737C176.846 25.1737 175.147 24.8666 173.589 24.2525C172.054 23.6384 170.705 22.783 169.543 21.6863C168.402 20.5897 167.514 19.2957 166.878 17.8042C166.242 16.3128 165.924 14.7007 165.924 12.968C165.924 11.2134 166.231 9.6013 166.845 8.13179C167.481 6.66228 168.369 5.37921 169.51 4.28256C170.65 3.18591 171.988 2.3415 173.523 1.74931C175.081 1.13519 176.781 0.828125 178.623 0.828125C180.465 0.828125 182.154 1.13519 183.689 1.74931C185.247 2.3415 186.596 3.18591 187.736 4.28256C188.877 5.37921 189.754 6.67325 190.368 8.16469C191.004 9.6342 191.322 11.2463 191.322 13.0009C191.322 14.7336 191.004 16.3457 190.368 17.8371C189.754 19.3066 188.877 20.6007 187.736 21.7192C186.596 22.8159 185.258 23.6713 183.722 24.2854C182.187 24.8776 180.509 25.1737 178.689 25.1737ZM178.623 19.3834C179.851 19.3834 180.915 19.1202 181.814 18.5938C182.713 18.0674 183.404 17.3217 183.887 16.3566C184.369 15.3916 184.611 14.262 184.611 12.968C184.611 12.003 184.468 11.1366 184.183 10.3689C183.92 9.57936 183.525 8.91041 182.999 8.36209C182.472 7.79183 181.836 7.36414 181.09 7.07901C180.367 6.77195 179.544 6.61842 178.623 6.61842C177.395 6.61842 176.331 6.88161 175.432 7.408C174.532 7.91246 173.842 8.64721 173.359 9.61226C172.876 10.5554 172.635 11.674 172.635 12.968C172.635 13.955 172.767 14.8433 173.03 15.6329C173.315 16.4224 173.721 17.1024 174.247 17.6726C174.774 18.2209 175.399 18.6486 176.123 18.9557C176.868 19.2408 177.702 19.3834 178.623 19.3834Z" fill="white"/>
<path d="M198.693 24.7131V1.28872H205.273V24.7131H198.693ZM191.685 6.88161V1.28872H212.313V6.88161H191.685Z" fill="white"/>
<path d="M221.229 25.1079C219.233 25.1079 217.489 24.8228 215.998 24.2525C214.528 23.6603 213.169 22.7282 211.918 21.456L216.031 17.3436C216.886 18.1551 217.785 18.7802 218.729 19.2189C219.672 19.6356 220.681 19.844 221.755 19.844C222.655 19.844 223.334 19.7124 223.795 19.4492C224.256 19.1641 224.486 18.7802 224.486 18.2977C224.486 17.8152 224.289 17.4204 223.894 17.1133C223.499 16.7843 222.973 16.4992 222.315 16.2579C221.678 15.9947 220.966 15.7316 220.176 15.4684C219.408 15.2052 218.641 14.8871 217.873 14.5143C217.105 14.1414 216.393 13.6918 215.735 13.1654C215.099 12.6171 214.583 11.9481 214.188 11.1585C213.794 10.347 213.596 9.36003 213.596 8.19759C213.596 6.68422 213.958 5.37921 214.682 4.28256C215.406 3.18591 216.426 2.35246 217.742 1.78221C219.058 1.19002 220.604 0.893923 222.38 0.893923C224.135 0.893923 225.758 1.17905 227.249 1.74931C228.763 2.29763 230.013 3.08722 231 4.11806L226.855 8.23049C226.131 7.52863 225.407 7.01321 224.683 6.68422C223.96 6.33329 223.17 6.15783 222.315 6.15783C221.635 6.15783 221.086 6.26749 220.67 6.48682C220.275 6.70615 220.077 7.03514 220.077 7.4738C220.077 7.93439 220.275 8.31822 220.67 8.62528C221.064 8.91041 221.58 9.1736 222.216 9.41487C222.874 9.65613 223.587 9.90836 224.354 10.1716C225.144 10.4347 225.923 10.7528 226.69 11.1256C227.458 11.4766 228.16 11.9372 228.796 12.5074C229.454 13.0557 229.98 13.7466 230.375 14.5801C230.77 15.4135 230.967 16.4224 230.967 17.6068C230.967 19.9975 230.112 21.8508 228.401 23.1668C226.712 24.4609 224.321 25.1079 221.229 25.1079Z" fill="white"/>
</svg>
